<mxfile host="app.diagrams.net" modified="2023-07-06T01:50:31.764Z" agent="Mozilla/5.0 (Windows NT 10.0; Win64; x64) AppleWebKit/537.36 (KHTML, like Gecko) Chrome/114.0.0.0 Safari/537.36" etag="PV2WD7SUCrb-pZFEa820" version="21.6.1" type="device">
  <diagram name="Page-1" id="XOgpF5Ve4EQHC5jsRmIs">
    <mxGraphModel dx="1434" dy="699" grid="1" gridSize="10" guides="1" tooltips="1" connect="1" arrows="1" fold="1" page="1" pageScale="1" pageWidth="850" pageHeight="1100" math="0" shadow="0">
      <root>
        <mxCell id="0" />
        <mxCell id="1" parent="0" />
        <mxCell id="IPDR-pR9WiOmNAwx5Y-j-6" style="edgeStyle=orthogonalEdgeStyle;rounded=0;orthogonalLoop=1;jettySize=auto;html=1;entryX=0;entryY=0.5;entryDx=0;entryDy=0;" edge="1" parent="1" source="IPDR-pR9WiOmNAwx5Y-j-3" target="IPDR-pR9WiOmNAwx5Y-j-5">
          <mxGeometry relative="1" as="geometry" />
        </mxCell>
        <mxCell id="IPDR-pR9WiOmNAwx5Y-j-3" value="" style="sketch=0;outlineConnect=0;fontColor=#232F3E;gradientColor=none;strokeColor=#232F3E;fillColor=#ffffff;dashed=0;verticalLabelPosition=bottom;verticalAlign=top;align=center;html=1;fontSize=12;fontStyle=0;aspect=fixed;shape=mxgraph.aws4.resourceIcon;resIcon=mxgraph.aws4.documents;" vertex="1" parent="1">
          <mxGeometry x="160" y="340" width="60" height="60" as="geometry" />
        </mxCell>
        <mxCell id="IPDR-pR9WiOmNAwx5Y-j-24" style="edgeStyle=orthogonalEdgeStyle;rounded=0;orthogonalLoop=1;jettySize=auto;html=1;" edge="1" parent="1" source="IPDR-pR9WiOmNAwx5Y-j-4" target="IPDR-pR9WiOmNAwx5Y-j-15">
          <mxGeometry relative="1" as="geometry">
            <Array as="points">
              <mxPoint x="650" y="640" />
            </Array>
          </mxGeometry>
        </mxCell>
        <mxCell id="IPDR-pR9WiOmNAwx5Y-j-4" value="" style="sketch=0;outlineConnect=0;fontColor=#232F3E;gradientColor=none;strokeColor=#232F3E;fillColor=#ffffff;dashed=0;verticalLabelPosition=bottom;verticalAlign=top;align=center;html=1;fontSize=12;fontStyle=0;aspect=fixed;shape=mxgraph.aws4.resourceIcon;resIcon=mxgraph.aws4.documents;" vertex="1" parent="1">
          <mxGeometry x="610" y="340" width="60" height="60" as="geometry" />
        </mxCell>
        <mxCell id="IPDR-pR9WiOmNAwx5Y-j-8" style="edgeStyle=orthogonalEdgeStyle;rounded=0;orthogonalLoop=1;jettySize=auto;html=1;" edge="1" parent="1" source="IPDR-pR9WiOmNAwx5Y-j-5" target="IPDR-pR9WiOmNAwx5Y-j-4">
          <mxGeometry relative="1" as="geometry" />
        </mxCell>
        <mxCell id="IPDR-pR9WiOmNAwx5Y-j-5" value="" style="rounded=1;whiteSpace=wrap;html=1;" vertex="1" parent="1">
          <mxGeometry x="350" y="340" width="110" height="60" as="geometry" />
        </mxCell>
        <mxCell id="IPDR-pR9WiOmNAwx5Y-j-9" value="" style="shape=image;verticalLabelPosition=bottom;labelBackgroundColor=default;verticalAlign=top;aspect=fixed;imageAspect=0;image=data:image/png,iVBORw0KGgoAAAANSUhEUgAAAOEAAADhCAMAAAAJbSJIAAAAhFBMVEX///8AAACOjo6/v7/FxcWbm5tSUlJgYGBlZWUpKSnJycnm5ub8/Pz19fXR0dHMzMzu7u6kpKTZ2dm3t7d6enr29vZZWVkuLi7f3982Nja0tLQkJCRERETv7+9xcXFqamqKioqAgIAXFxerq6uWlpafn58MDAxMTEw6OjoRERFGRkYcHBzAJ+ohAAAO6klEQVR4nO1daVfqMBAVQVQ2sSCLyFIX1Of//39PULCzZWaSFvQc7kdtaW6bzJ7J2dkJJ5xwwgknnHDCCSds0el2O51jD6IStBsvefP6cV3b4GM6yp8b7WOPqTxMnpY1FqOL7NhjKwHZ6pGn9428d+wRJqF/Hqa3xft5/9jjjEV2qdP7nq5/crb2mlZ+G7z+OY598/fb4fJvydZnL78Nzo89ajuyjxiCtdr65tgjN+I8jt8G+bHHbkH3IZ5grfbWPfb4VWQp/Db47UK1nkqwVqsfm0MQ9/LAx4vnem/S7vfbWW/wvBjLVz4dm0UAT9Kghw2yvuat85lw9csxxm6CQFA2rrM8RHE+aQ3u7+8H9dZk/jsEEL8GX+6CN92zH/L5dvi2Bn+Zjc7rx7bQbyIn3MBhHyzr4fdVKfrMgHLbeFw23uhospYKx5lZtbXfPBxr+aRKIhJooGLhuT13UayNDh8ZoFLm1vcDDR/F2ujA33FORuB8yY1rJ8PPOXJQoUP8Xd8bbrviAXsMKmLDoIWf7fLX7/Iofp8YHewzYq3t+oKiqWfBgXxmPEbPY2/8CxDguTJWBXTQQx2Gc9sdsCK4rI7YHhfwkU3zjR0t3jFtXi4Xy8tm8DtPq1+M6IlmNyDgTNbWi6eb4g9N6rlI82NeAakiBvB5VrMxky21j2dWVPUH0pyumOIUPMw4R/tCOuoTi4Cx0H1hEyGPlU7UCXyYTRPK3sS59j0GHMe3dB4yoLQYWm6Rw1UmS4xbv6NEFiHAJxnc8Mk/id+b0d26G9J7q9GLndYKhX+X6j1dZnTfcJiZxEys1RoJRATUR/QxqkfxIvLzfYS7V/IDJUubSc6N8kO5qyGmhK/cUSYyALulYUBLyE2Ev4PsI01jXPYL/CvlRZJbU26UG4R8ig556Xvcx43jFv9OSUHVCV0BO8wCt8k+0iq6ggh/xXKM8JCxLCvDGzFNMUpJbmO5XIK3mAWrR6TZ1mak7hfGiWNCK3ua9mtnauhWWIYr8YZk2YBd08RocUeLF7F3yT5SXkIJXw/+5Djpx9pafROnDSeij9Qsp7oETZBWwk+xiRcARpSJcd5ZaUYWTFElqH1D+pqK0rZ0qSGUYy1DRS8xOhQ+4EcKsCJ3XfEXLlTV3F98fpqxzVSF+jm27Ej4gq+r4I/f8Tepr/knQmVxN5CwieKHf2T3KSbQiyEMJ9xdukAvzpcHw6yDRnJUVopdTtupBhYBYci8GH3iZcj80ac0XImrCIIdJg39NqE/rjNcqkGxLhOhUsUSuDpkHEtgbK6dMeJi+KAHKXij6UNRLdBW9utZ6paP9z/iYahLjfo7S7Cm2edwvbt9MSouCsEYO0Ndik+CJX9BHwvkvkzhviKI31Mcq5XhpRqk6C5C/DYIfJu8eJ3XNiVzFOTnjQz11S9HqH4gBxuhuvYR7OLHQIfHyPBaeYocoYKQZDFUZz7DDc8dpM9KYejJ4l/wPwGucTmJWNfjGpkSGDIB7DwQDHpnNQd4R646F5TOIgmQdIYkYFZrbmeZrDk4xzIPjiMAXNJMDKhUhi1SmfjjOFLuO1DNASwFTzEWMqGozk5jyESoihZaIMWBNQcIlTjyUKjSSfPhnQw7NEI1RJPEnKYC6sLh56PYKCOqExjSEPE/RszLy3FZfBuA4audIdRSnIiKZtgjmYG1IOTlCGZBc4Bx2BnC2NMjd0kkwz4Nb8iO41xM+T/upVLkLIXantUycQxpZiCcXOuJOYGd5gAM7ZIG/hhr28cwpEGtteo4ankdoFn0RDQe39cvsdf4GWacj/SgBleU3BwQy/xQGcC5xJuzXoZzyUfSc8ByeudTc4Claq6rA7pI0NlOhiRtW4Aeo6IG0A45WKjWigeY1hGe72Io67YtJHVRgMWLtO9+61nucjAM5I534FQ+BFdJQ2BNdkPxJURJwgz3CvWaG9qqS5X5UC0ZCUdztjAShOJJUqJGhmMq7bfRMyY6qjt3ymS3KwvgVEoul5EhweMuz5cR622mJ77DqWhzYhm8KSnOFcmw+KGoAaDnTrtCUmsLc5gG3CWJpyiGyEdiaqH1AhTZkHu3EoS+ofRWIxgyyTXGENcD15IhZ/bwYQxKusrN8J1XetSZ0isxBUPOnD6vhqEQDDzjPkmkIWf2napguAgl15ighh40azGawzpNYUJGusrDUJ139JOsdROTqUIzqouyv6FhsNwWIT3LzSSabYZpyQyfjbUjdDmqhlyXFCWxARcCuHFZWvRGho5dLR1aRKX6e8T2M6UQYdJJmitGhp7tEMy+mGutlivHd5gKMsAd0iMOw1CvQsVy2FSuAMwiaaIciqFqyGHnzJJ/ApaUpGMOx1Az5HAO0iDZgKKRkkdGhp7a3T1DEpUJKtQOunylPwl6NYIwrJJhqw4LK2vh+iiczNVjGfAOQV9XybDOubqyYYtVqSFPCq4XQgNhhvu6vliGjF8VqI9CoS7HowLXA4Yk4pjOkPOrxOpNNE91FxNmmQW/rnjJG7Z8ymDIGXJSCXwOrnpQHwW9C97tQuU2SGmVw5BzdfloFRqNHrCBvhdvVWDtBaZGSQy5ihveLIOmjZ4nsOx/JcW1RaVVGsPPBY9qXNfsvdBd0PYKkqpE3r+gPfaW+wv3DD3FdDxDkrPg5QJMbemVplCMCQqDKSrcqY1SGZ51wVTlpxSMKujOPpJiktHEJD0HFTCEX1EIOAEz6Ep9GNo3Ja8mGrfeVjyXzBBkHwWGefEafrECILcrIJxoQGg5PwZDOE31zcW4B1vAuGcaB78cgSGcdoY6zByO+T0UFaL21R6HYwi3lxi2FeES4XBAWawJOSBDsLAswWHsv4TvYeLWh2YIqhRNsQUcNlcCdXxNiFbnXUQiQ2iBWB5IOlBosUiuJuSA3xAKR1Mcmpgsap6cLse1vXz+J4IdxxA67qZeFB0SLXnQ3gzj7uhFFoRFGQxte6CY/tVqMQGzHC0RTBB7OhxDrqR8pd5El6Mam0c1RZEMwXOtq4MpYTW0wGf2GYReKemeeEiGJKC8wUhdxdxeEXEJ0/dxwFkqtZLXa0KYWjbeZ+NUzEEZSg1N9IAdjj6wzT54M6EMhua8pVieY2gORGtK0WZEydSLY2jLXYfvCg6XARfmKMxvsTNIHEMQwbWlu8+0jhF6goBpkbib37RyL5HhreUigjzI0LSHmRhG4403zZR7vSTapWDCrKwM1X7iUfvQl336t6v+T2Y2jiGoVzFv69YI1pRypy3krS97bKPJaQyha2Gt+A4Jmh/oEYNAmGOLrzeextBUu00A41fyLiQ97hPqOruTr2kMgfVl3uIF3sv4rCW2uzX0ZZG6Yv0onSSGsCrW3IoRxJo3/q+8f1V3A9nuz0U7J4khTG6YG7nkxbu2Z04Ftj2oJVptaoICWzWJIbQRrQSh8/T95eVtD+EeVx1m3wWUBykMYaca+45nYBfv37fcByHgBtL5Teq5UhhCxW3v5wcYFpSovE9LcAOpjJpRvz+BIfyEhrwMy7C4ZgL9SBg30Bi7SWAIV7ij8QAwHqEkYfdLbjFGgozbm84K3niGKEvs6GoLvhTWMXIjN+BXUV3fFJRnNENkenmamebgxZN/B7qP75Yjtdfk0qZohsg/8JzBB74+kzlmfKAdtnKJsbkD5WmxDFGkxdXCHFht7LainuhfTTPmGwdbsEUyxF66qw0PTM7wiiBkUyMozmQcQ9yvSy9SKAIuYWl8cqdZAGHjUyJD4uA524ODe8UiFXk7eQG6ub//FQdDQjCwzlkASRj4/q3AwZRbLNXC3YIRYWdIAtbuZrs5uD10ZfBkI8PRB0WxbWZIG92627RCORU0aAOnUxkC5MCYtzKkAXnnkW9nOLyjOCUTvjeZP8lhY9inbYhiWrPD9aWNdUCCo4bIOHUcTQyZcIM50F0EnAj6dENKHlvhDJiRGhjecNG7qNNKobAySCpgqOlFkKwQJpYrZthi+1BEnv2oPJtBtlsfeud1QZGSbwFm0uuAV02xLcvhtLOpm/rlpwUzVHOUUoCRltpbrKboRujIaCjxXGlRg9LZZuhrktB0HqmAso5YlgP9TFRStwpTzmVHG8/N/UOCkB1LJkJFz5EkN6Wd+YxedhlHgMrHnfBGiULQ5zBRYA8z+Yxsxi74Bu6e+A0lBeY31TBQVM1TUMlAPhtQbKUUPLzgrYTTMvDO/pSz3AKBVtlBziv9gBtgseA6lRpADpaHHGTZ+dSb2dtA2kLncb9TF0+LD3YzEZfha4qOgCDK2d39/CzU1EypPhJ6tV2Vx++MbEONWIuBxKPmsXCZ58fnZJEOQeZpbeYTYZ7mxwi0eHA9rOAIeaY4ymGiyn0PDUeTIel7eVvR6fGMGdI0ThQ52MiaaAhof1IaiyC4YZ4byla6ucTPpsvg+o0RcWawzsCFwrEj56cEEw0BqYpKT1TH/Sd2Aw0Ibf5Ezy30CpwvwKkTc5SMA11BYV9fsCQnL3Ldn6Fj6RdQzLccG03GnXzS+dVto/2Tup5n94tQn0pzyRI+A7CEM/eUB4arMWfN5fKy+TATvaMvLO3KGmVYYw8e8yDUetKGN4e2xtZiWSGUIEKnkVrgObEIWzPVnE9NoJ+GGIDr9FjiU1TGCeFO7OekwXd6LN5sHXt4cAwcqfsCPnwhTULwX0VsWJhaT0OsnaqMehTlnF5qBlsOG4IzCEl9maqVPcXEyXHl+XGaqHAcP1Ie2rmL4tQ8zSaMkW/ca1s2OgPXhzTqMy7TVGpMxodOfWg8Ou0T74bVyKakykglpKBfP79ENMfLW9YznIWVWueWNdi9ZUAVod1r1e+fnu7rvezLtBbCvytxPWY5f8chDO44SDbs+Jkuq07rXAptrw4+cDsCJ5NMF0/1rN/tdufzrP40lD3P3zJFBcTZdwAl5tUrAX8mtAMVxH5LxlzZmBfGtOTYfTXwW+l7VBodLRG0RtKGdUIFyYFxp574y0EvqfpNyMQDGyVYDo//XahrNTEA078zQQto6Oc1faNZaXaiSmT6tvVayG79C+gMwiHl9fDPfr4fdBorwcQeXfx+A8aKbva0WjZ3qaz1dDS8bfzpuXnCCSeccMIJJ5xwwgknbPAfNM3Lc/OddgwAAAAASUVORK5CYII=;" vertex="1" parent="1">
          <mxGeometry x="360" y="347.5" width="45" height="45" as="geometry" />
        </mxCell>
        <mxCell id="IPDR-pR9WiOmNAwx5Y-j-12" value="" style="shape=image;verticalLabelPosition=bottom;labelBackgroundColor=default;verticalAlign=top;aspect=fixed;imageAspect=0;image=https://upload.wikimedia.org/wikipedia/commons/thumb/c/ca/Google_PaLM_Logo.svg/1200px-Google_PaLM_Logo.svg.png;" vertex="1" parent="1">
          <mxGeometry x="410" y="347.5" width="42.5" height="42.5" as="geometry" />
        </mxCell>
        <mxCell id="IPDR-pR9WiOmNAwx5Y-j-13" value="&lt;b&gt;LLM&lt;/b&gt;" style="text;html=1;strokeColor=none;fillColor=none;align=center;verticalAlign=middle;whiteSpace=wrap;rounded=0;" vertex="1" parent="1">
          <mxGeometry x="375" y="400" width="60" height="30" as="geometry" />
        </mxCell>
        <mxCell id="IPDR-pR9WiOmNAwx5Y-j-20" style="edgeStyle=orthogonalEdgeStyle;rounded=0;orthogonalLoop=1;jettySize=auto;html=1;" edge="1" parent="1" source="IPDR-pR9WiOmNAwx5Y-j-14" target="IPDR-pR9WiOmNAwx5Y-j-4">
          <mxGeometry relative="1" as="geometry">
            <mxPoint x="640" y="450" as="targetPoint" />
          </mxGeometry>
        </mxCell>
        <mxCell id="IPDR-pR9WiOmNAwx5Y-j-14" value="" style="shape=actor;whiteSpace=wrap;html=1;" vertex="1" parent="1">
          <mxGeometry x="170" y="450" width="40" height="60" as="geometry" />
        </mxCell>
        <mxCell id="IPDR-pR9WiOmNAwx5Y-j-26" style="edgeStyle=orthogonalEdgeStyle;rounded=0;orthogonalLoop=1;jettySize=auto;html=1;exitX=0;exitY=0.5;exitDx=0;exitDy=0;entryX=0.5;entryY=1;entryDx=0;entryDy=0;" edge="1" parent="1" source="IPDR-pR9WiOmNAwx5Y-j-15" target="IPDR-pR9WiOmNAwx5Y-j-14">
          <mxGeometry relative="1" as="geometry" />
        </mxCell>
        <mxCell id="IPDR-pR9WiOmNAwx5Y-j-15" value="" style="rounded=1;whiteSpace=wrap;html=1;" vertex="1" parent="1">
          <mxGeometry x="350" y="540" width="110" height="60" as="geometry" />
        </mxCell>
        <mxCell id="IPDR-pR9WiOmNAwx5Y-j-16" value="" style="shape=image;verticalLabelPosition=bottom;labelBackgroundColor=default;verticalAlign=top;aspect=fixed;imageAspect=0;image=data:image/png,iVBORw0KGgoAAAANSUhEUgAAAOEAAADhCAMAAAAJbSJIAAAAhFBMVEX///8AAACOjo6/v7/FxcWbm5tSUlJgYGBlZWUpKSnJycnm5ub8/Pz19fXR0dHMzMzu7u6kpKTZ2dm3t7d6enr29vZZWVkuLi7f3982Nja0tLQkJCRERETv7+9xcXFqamqKioqAgIAXFxerq6uWlpafn58MDAxMTEw6OjoRERFGRkYcHBzAJ+ohAAAO6klEQVR4nO1daVfqMBAVQVQ2sSCLyFIX1Of//39PULCzZWaSFvQc7kdtaW6bzJ7J2dkJJ5xwwgknnHDCCSds0el2O51jD6IStBsvefP6cV3b4GM6yp8b7WOPqTxMnpY1FqOL7NhjKwHZ6pGn9428d+wRJqF/Hqa3xft5/9jjjEV2qdP7nq5/crb2mlZ+G7z+OY598/fb4fJvydZnL78Nzo89ajuyjxiCtdr65tgjN+I8jt8G+bHHbkH3IZ5grfbWPfb4VWQp/Db47UK1nkqwVqsfm0MQ9/LAx4vnem/S7vfbWW/wvBjLVz4dm0UAT9Kghw2yvuat85lw9csxxm6CQFA2rrM8RHE+aQ3u7+8H9dZk/jsEEL8GX+6CN92zH/L5dvi2Bn+Zjc7rx7bQbyIn3MBhHyzr4fdVKfrMgHLbeFw23uhospYKx5lZtbXfPBxr+aRKIhJooGLhuT13UayNDh8ZoFLm1vcDDR/F2ujA33FORuB8yY1rJ8PPOXJQoUP8Xd8bbrviAXsMKmLDoIWf7fLX7/Iofp8YHewzYq3t+oKiqWfBgXxmPEbPY2/8CxDguTJWBXTQQx2Gc9sdsCK4rI7YHhfwkU3zjR0t3jFtXi4Xy8tm8DtPq1+M6IlmNyDgTNbWi6eb4g9N6rlI82NeAakiBvB5VrMxky21j2dWVPUH0pyumOIUPMw4R/tCOuoTi4Cx0H1hEyGPlU7UCXyYTRPK3sS59j0GHMe3dB4yoLQYWm6Rw1UmS4xbv6NEFiHAJxnc8Mk/id+b0d26G9J7q9GLndYKhX+X6j1dZnTfcJiZxEys1RoJRATUR/QxqkfxIvLzfYS7V/IDJUubSc6N8kO5qyGmhK/cUSYyALulYUBLyE2Ev4PsI01jXPYL/CvlRZJbU26UG4R8ig556Xvcx43jFv9OSUHVCV0BO8wCt8k+0iq6ggh/xXKM8JCxLCvDGzFNMUpJbmO5XIK3mAWrR6TZ1mak7hfGiWNCK3ua9mtnauhWWIYr8YZk2YBd08RocUeLF7F3yT5SXkIJXw/+5Djpx9pafROnDSeij9Qsp7oETZBWwk+xiRcARpSJcd5ZaUYWTFElqH1D+pqK0rZ0qSGUYy1DRS8xOhQ+4EcKsCJ3XfEXLlTV3F98fpqxzVSF+jm27Ej4gq+r4I/f8Tepr/knQmVxN5CwieKHf2T3KSbQiyEMJ9xdukAvzpcHw6yDRnJUVopdTtupBhYBYci8GH3iZcj80ac0XImrCIIdJg39NqE/rjNcqkGxLhOhUsUSuDpkHEtgbK6dMeJi+KAHKXij6UNRLdBW9utZ6paP9z/iYahLjfo7S7Cm2edwvbt9MSouCsEYO0Ndik+CJX9BHwvkvkzhviKI31Mcq5XhpRqk6C5C/DYIfJu8eJ3XNiVzFOTnjQz11S9HqH4gBxuhuvYR7OLHQIfHyPBaeYocoYKQZDFUZz7DDc8dpM9KYejJ4l/wPwGucTmJWNfjGpkSGDIB7DwQDHpnNQd4R646F5TOIgmQdIYkYFZrbmeZrDk4xzIPjiMAXNJMDKhUhi1SmfjjOFLuO1DNASwFTzEWMqGozk5jyESoihZaIMWBNQcIlTjyUKjSSfPhnQw7NEI1RJPEnKYC6sLh56PYKCOqExjSEPE/RszLy3FZfBuA4audIdRSnIiKZtgjmYG1IOTlCGZBc4Bx2BnC2NMjd0kkwz4Nb8iO41xM+T/upVLkLIXantUycQxpZiCcXOuJOYGd5gAM7ZIG/hhr28cwpEGtteo4ankdoFn0RDQe39cvsdf4GWacj/SgBleU3BwQy/xQGcC5xJuzXoZzyUfSc8ByeudTc4Claq6rA7pI0NlOhiRtW4Aeo6IG0A45WKjWigeY1hGe72Io67YtJHVRgMWLtO9+61nucjAM5I534FQ+BFdJQ2BNdkPxJURJwgz3CvWaG9qqS5X5UC0ZCUdztjAShOJJUqJGhmMq7bfRMyY6qjt3ymS3KwvgVEoul5EhweMuz5cR622mJ77DqWhzYhm8KSnOFcmw+KGoAaDnTrtCUmsLc5gG3CWJpyiGyEdiaqH1AhTZkHu3EoS+ofRWIxgyyTXGENcD15IhZ/bwYQxKusrN8J1XetSZ0isxBUPOnD6vhqEQDDzjPkmkIWf2napguAgl15ighh40azGawzpNYUJGusrDUJ139JOsdROTqUIzqouyv6FhsNwWIT3LzSSabYZpyQyfjbUjdDmqhlyXFCWxARcCuHFZWvRGho5dLR1aRKX6e8T2M6UQYdJJmitGhp7tEMy+mGutlivHd5gKMsAd0iMOw1CvQsVy2FSuAMwiaaIciqFqyGHnzJJ/ApaUpGMOx1Az5HAO0iDZgKKRkkdGhp7a3T1DEpUJKtQOunylPwl6NYIwrJJhqw4LK2vh+iiczNVjGfAOQV9XybDOubqyYYtVqSFPCq4XQgNhhvu6vliGjF8VqI9CoS7HowLXA4Yk4pjOkPOrxOpNNE91FxNmmQW/rnjJG7Z8ymDIGXJSCXwOrnpQHwW9C97tQuU2SGmVw5BzdfloFRqNHrCBvhdvVWDtBaZGSQy5ihveLIOmjZ4nsOx/JcW1RaVVGsPPBY9qXNfsvdBd0PYKkqpE3r+gPfaW+wv3DD3FdDxDkrPg5QJMbemVplCMCQqDKSrcqY1SGZ51wVTlpxSMKujOPpJiktHEJD0HFTCEX1EIOAEz6Ep9GNo3Ja8mGrfeVjyXzBBkHwWGefEafrECILcrIJxoQGg5PwZDOE31zcW4B1vAuGcaB78cgSGcdoY6zByO+T0UFaL21R6HYwi3lxi2FeES4XBAWawJOSBDsLAswWHsv4TvYeLWh2YIqhRNsQUcNlcCdXxNiFbnXUQiQ2iBWB5IOlBosUiuJuSA3xAKR1Mcmpgsap6cLse1vXz+J4IdxxA67qZeFB0SLXnQ3gzj7uhFFoRFGQxte6CY/tVqMQGzHC0RTBB7OhxDrqR8pd5El6Mam0c1RZEMwXOtq4MpYTW0wGf2GYReKemeeEiGJKC8wUhdxdxeEXEJ0/dxwFkqtZLXa0KYWjbeZ+NUzEEZSg1N9IAdjj6wzT54M6EMhua8pVieY2gORGtK0WZEydSLY2jLXYfvCg6XARfmKMxvsTNIHEMQwbWlu8+0jhF6goBpkbib37RyL5HhreUigjzI0LSHmRhG4403zZR7vSTapWDCrKwM1X7iUfvQl336t6v+T2Y2jiGoVzFv69YI1pRypy3krS97bKPJaQyha2Gt+A4Jmh/oEYNAmGOLrzeextBUu00A41fyLiQ97hPqOruTr2kMgfVl3uIF3sv4rCW2uzX0ZZG6Yv0onSSGsCrW3IoRxJo3/q+8f1V3A9nuz0U7J4khTG6YG7nkxbu2Z04Ftj2oJVptaoICWzWJIbQRrQSh8/T95eVtD+EeVx1m3wWUBykMYaca+45nYBfv37fcByHgBtL5Teq5UhhCxW3v5wcYFpSovE9LcAOpjJpRvz+BIfyEhrwMy7C4ZgL9SBg30Bi7SWAIV7ij8QAwHqEkYfdLbjFGgozbm84K3niGKEvs6GoLvhTWMXIjN+BXUV3fFJRnNENkenmamebgxZN/B7qP75Yjtdfk0qZohsg/8JzBB74+kzlmfKAdtnKJsbkD5WmxDFGkxdXCHFht7LainuhfTTPmGwdbsEUyxF66qw0PTM7wiiBkUyMozmQcQ9yvSy9SKAIuYWl8cqdZAGHjUyJD4uA524ODe8UiFXk7eQG6ub//FQdDQjCwzlkASRj4/q3AwZRbLNXC3YIRYWdIAtbuZrs5uD10ZfBkI8PRB0WxbWZIG92627RCORU0aAOnUxkC5MCYtzKkAXnnkW9nOLyjOCUTvjeZP8lhY9inbYhiWrPD9aWNdUCCo4bIOHUcTQyZcIM50F0EnAj6dENKHlvhDJiRGhjecNG7qNNKobAySCpgqOlFkKwQJpYrZthi+1BEnv2oPJtBtlsfeud1QZGSbwFm0uuAV02xLcvhtLOpm/rlpwUzVHOUUoCRltpbrKboRujIaCjxXGlRg9LZZuhrktB0HqmAso5YlgP9TFRStwpTzmVHG8/N/UOCkB1LJkJFz5EkN6Wd+YxedhlHgMrHnfBGiULQ5zBRYA8z+Yxsxi74Bu6e+A0lBeY31TBQVM1TUMlAPhtQbKUUPLzgrYTTMvDO/pSz3AKBVtlBziv9gBtgseA6lRpADpaHHGTZ+dSb2dtA2kLncb9TF0+LD3YzEZfha4qOgCDK2d39/CzU1EypPhJ6tV2Vx++MbEONWIuBxKPmsXCZ58fnZJEOQeZpbeYTYZ7mxwi0eHA9rOAIeaY4ymGiyn0PDUeTIel7eVvR6fGMGdI0ThQ52MiaaAhof1IaiyC4YZ4byla6ucTPpsvg+o0RcWawzsCFwrEj56cEEw0BqYpKT1TH/Sd2Aw0Ibf5Ezy30CpwvwKkTc5SMA11BYV9fsCQnL3Ldn6Fj6RdQzLccG03GnXzS+dVto/2Tup5n94tQn0pzyRI+A7CEM/eUB4arMWfN5fKy+TATvaMvLO3KGmVYYw8e8yDUetKGN4e2xtZiWSGUIEKnkVrgObEIWzPVnE9NoJ+GGIDr9FjiU1TGCeFO7OekwXd6LN5sHXt4cAwcqfsCPnwhTULwX0VsWJhaT0OsnaqMehTlnF5qBlsOG4IzCEl9maqVPcXEyXHl+XGaqHAcP1Ie2rmL4tQ8zSaMkW/ca1s2OgPXhzTqMy7TVGpMxodOfWg8Ou0T74bVyKakykglpKBfP79ENMfLW9YznIWVWueWNdi9ZUAVod1r1e+fnu7rvezLtBbCvytxPWY5f8chDO44SDbs+Jkuq07rXAptrw4+cDsCJ5NMF0/1rN/tdufzrP40lD3P3zJFBcTZdwAl5tUrAX8mtAMVxH5LxlzZmBfGtOTYfTXwW+l7VBodLRG0RtKGdUIFyYFxp574y0EvqfpNyMQDGyVYDo//XahrNTEA078zQQto6Oc1faNZaXaiSmT6tvVayG79C+gMwiHl9fDPfr4fdBorwcQeXfx+A8aKbva0WjZ3qaz1dDS8bfzpuXnCCSeccMIJJ5xwwgknbPAfNM3Lc/OddgwAAAAASUVORK5CYII=;" vertex="1" parent="1">
          <mxGeometry x="360" y="547.5" width="45" height="45" as="geometry" />
        </mxCell>
        <mxCell id="IPDR-pR9WiOmNAwx5Y-j-17" value="" style="shape=image;verticalLabelPosition=bottom;labelBackgroundColor=default;verticalAlign=top;aspect=fixed;imageAspect=0;image=https://upload.wikimedia.org/wikipedia/commons/thumb/c/ca/Google_PaLM_Logo.svg/1200px-Google_PaLM_Logo.svg.png;" vertex="1" parent="1">
          <mxGeometry x="410" y="547.5" width="42.5" height="42.5" as="geometry" />
        </mxCell>
        <mxCell id="IPDR-pR9WiOmNAwx5Y-j-18" value="&lt;b&gt;LLM&lt;/b&gt;" style="text;html=1;strokeColor=none;fillColor=none;align=center;verticalAlign=middle;whiteSpace=wrap;rounded=0;" vertex="1" parent="1">
          <mxGeometry x="450" y="555" width="60" height="30" as="geometry" />
        </mxCell>
        <mxCell id="IPDR-pR9WiOmNAwx5Y-j-21" value="&lt;b&gt;Raw Doc&lt;/b&gt;" style="text;html=1;strokeColor=none;fillColor=none;align=center;verticalAlign=middle;whiteSpace=wrap;rounded=0;" vertex="1" parent="1">
          <mxGeometry x="160" y="317.5" width="60" height="30" as="geometry" />
        </mxCell>
        <mxCell id="IPDR-pR9WiOmNAwx5Y-j-22" value="&lt;b&gt;Processed Doc&lt;/b&gt;" style="text;html=1;strokeColor=none;fillColor=none;align=center;verticalAlign=middle;whiteSpace=wrap;rounded=0;" vertex="1" parent="1">
          <mxGeometry x="610" y="317.5" width="60" height="30" as="geometry" />
        </mxCell>
        <mxCell id="IPDR-pR9WiOmNAwx5Y-j-23" value="&lt;b&gt;Question&lt;/b&gt;" style="text;html=1;strokeColor=none;fillColor=none;align=center;verticalAlign=middle;whiteSpace=wrap;rounded=0;" vertex="1" parent="1">
          <mxGeometry x="375" y="450" width="60" height="30" as="geometry" />
        </mxCell>
        <mxCell id="IPDR-pR9WiOmNAwx5Y-j-27" value="&lt;b&gt;Context or Reference&lt;/b&gt;" style="text;html=1;strokeColor=none;fillColor=none;align=center;verticalAlign=middle;whiteSpace=wrap;rounded=0;" vertex="1" parent="1">
          <mxGeometry x="530" y="610" width="70" height="30" as="geometry" />
        </mxCell>
        <mxCell id="IPDR-pR9WiOmNAwx5Y-j-28" value="&lt;b&gt;Answer&lt;/b&gt;" style="text;html=1;strokeColor=none;fillColor=none;align=center;verticalAlign=middle;whiteSpace=wrap;rounded=0;" vertex="1" parent="1">
          <mxGeometry x="240" y="540" width="70" height="30" as="geometry" />
        </mxCell>
      </root>
    </mxGraphModel>
  </diagram>
</mxfile>
